<svg version="1.1" id="Layer_1" xmlns="http://www.w3.org/2000/svg" xmlns:xlink="http://www.w3.org/1999/xlink" x="0px" y="0px"
	 width="100%" viewBox="0 0 500 500" enable-background="new 0 0 500 500" xml:space="preserve">
<path fill="#FFF5E1" opacity="1.000000" stroke="none" 
	d="
M282.000000,501.000000 
	C188.000015,501.000000 94.500046,501.000000 1.000050,501.000000 
	C1.000033,334.333405 1.000033,167.666794 1.000017,1.000140 
	C167.666565,1.000093 334.333130,1.000093 500.999756,1.000046 
	C500.999847,167.666519 500.999847,334.333038 500.999939,500.999786 
	C428.166656,501.000000 355.333344,501.000000 282.000000,501.000000 
M226.220444,78.991478 
	C219.264420,78.991478 212.308395,78.991478 205.286835,78.991478 
	C204.920349,74.738693 206.340973,72.233582 209.760406,70.438927 
	C212.384827,69.061539 214.628586,66.958893 217.041641,65.178787 
	C211.251236,63.687309 205.587723,63.060604 202.536957,68.083389 
	C199.969788,72.309937 199.042801,77.532700 197.763382,81.233635 
	C196.007111,80.541153 194.095108,79.537979 192.059891,79.064980 
	C190.478882,78.697563 188.744171,78.987015 187.077789,78.992332 
	C180.493729,79.013351 179.666824,79.790154 179.638367,86.516197 
	C179.589752,98.014114 179.460861,109.515839 179.707275,121.008644 
	C179.795609,125.128784 178.599564,126.670799 174.379089,126.396675 
	C169.359909,126.070663 164.303345,126.319931 159.083817,126.319931 
	C160.048233,129.985504 160.759644,132.689407 161.597900,135.875458 
	C165.268127,135.875458 169.071411,135.875458 172.874695,135.875458 
	C176.619110,135.875458 180.363525,135.875458 183.981689,135.875458 
	C185.121216,144.992767 185.121216,144.992767 193.210342,143.512085 
	C193.210342,138.613556 193.210342,133.683502 193.210342,128.191299 
	C190.401642,128.191299 187.830292,128.191299 184.058121,128.191299 
	C190.050522,125.517937 215.096237,125.909653 218.109055,128.519257 
	C215.141800,128.519257 212.596512,128.519257 210.235382,128.519257 
	C210.235382,133.838104 210.235382,138.766861 210.235382,143.585388 
	C217.250641,145.757111 219.750809,142.796722 218.844513,136.463745 
	C220.740997,135.975525 222.126434,135.618881 223.402451,135.290405 
	C224.677643,126.296417 228.213806,121.883934 235.297226,121.294571 
	C237.942444,121.074478 241.596817,121.481758 243.241745,123.139923 
	C246.646759,126.572334 249.013306,131.034927 252.350708,135.860123 
	C254.116623,135.901367 256.113770,134.641724 256.344543,131.321472 
	C256.950073,122.609863 257.492157,113.893829 258.106476,105.182877 
	C258.288574,102.600647 257.535370,100.797569 254.623428,101.017693 
	C243.061371,101.891655 237.038086,96.437668 235.444519,85.097351 
	C234.844055,80.824310 231.761887,78.508102 226.220444,78.991478 
M146.804337,144.658371 
	C155.278198,144.025620 160.175507,137.712006 157.583954,130.761307 
	C155.830139,126.057503 151.194733,123.378983 146.046280,124.094406 
	C141.391953,124.741165 137.537872,128.854248 137.203949,133.530991 
	C136.838867,138.644028 140.072266,142.668396 146.804337,144.658371 
M241.727539,143.398605 
	C246.261124,140.674652 248.139999,136.656570 246.807755,131.570724 
	C245.710892,127.383423 242.774200,124.721245 238.378830,124.116516 
	C233.860046,123.494827 230.179871,125.036377 227.761734,129.015579 
	C225.321060,133.031845 225.746109,137.025177 228.549210,140.620941 
	C231.826385,144.824875 236.165329,145.578339 241.727539,143.398605 
M121.013237,124.115768 
	C114.301552,124.013428 110.124428,126.732834 108.898865,132.002502 
	C107.782829,136.801224 110.423248,141.921188 114.995399,143.824112 
	C120.430908,146.086349 126.281029,143.763977 128.731689,138.371124 
	C131.351593,132.605820 128.776688,127.367668 121.013237,124.115768 
M195.894775,131.761612 
	C195.894775,135.700455 195.894775,139.639297 195.894775,143.810333 
	C199.995544,143.810333 203.544037,143.810333 207.303619,143.810333 
	C207.303619,138.613617 207.303619,133.713547 207.303619,128.353027 
	C204.103210,128.353027 201.137115,128.171600 198.219238,128.466736 
	C197.375168,128.552109 196.669495,130.005569 195.894775,131.761612 
M102.460556,132.197433 
	C103.069679,133.504089 103.678802,134.810760 104.287926,136.117416 
	C104.676575,135.954407 105.065224,135.791382 105.453880,135.628372 
	C106.206978,132.689651 106.960075,129.750931 107.746651,126.681564 
	C103.122597,125.499527 102.151695,127.772736 102.460556,132.197433 
M133.497650,135.794449 
	C134.574326,132.818878 135.650986,129.843292 136.829514,126.586258 
	C134.433456,126.586258 132.465439,126.586258 130.364517,126.586258 
	C131.243210,129.872009 132.005554,132.722672 133.497650,135.794449 
z"/>
<path fill="#CB6867" opacity="1.000000" stroke="none" 
	d="
M226.679077,78.991547 
	C231.761887,78.508102 234.844055,80.824310 235.444519,85.097351 
	C237.038086,96.437668 243.061371,101.891655 254.623428,101.017693 
	C257.535370,100.797569 258.288574,102.600647 258.106476,105.182877 
	C257.492157,113.893829 256.950073,122.609863 256.344543,131.321472 
	C256.113770,134.641724 254.116623,135.901367 252.350708,135.860123 
	C249.013306,131.034927 246.646759,126.572334 243.241745,123.139923 
	C241.596817,121.481758 237.942444,121.074478 235.297226,121.294571 
	C228.213806,121.883934 224.677643,126.296417 223.402451,135.290405 
	C222.126434,135.618881 220.740997,135.975525 218.844513,136.463745 
	C219.750809,142.796722 217.250641,145.757111 210.235382,143.585388 
	C210.235382,138.766861 210.235382,133.838104 210.235382,128.519257 
	C212.596512,128.519257 215.141800,128.519257 218.109055,128.519257 
	C215.096237,125.909653 190.050522,125.517937 184.058121,128.191299 
	C187.830292,128.191299 190.401642,128.191299 193.210342,128.191299 
	C193.210342,133.683502 193.210342,138.613556 193.210342,143.512085 
	C185.121216,144.992767 185.121216,144.992767 183.981689,135.875458 
	C180.363525,135.875458 176.619110,135.875458 172.874695,135.875458 
	C169.071411,135.875458 165.268127,135.875458 161.597900,135.875458 
	C160.759644,132.689407 160.048233,129.985504 159.083817,126.319931 
	C164.303345,126.319931 169.359909,126.070663 174.379089,126.396675 
	C178.599564,126.670799 179.795609,125.128784 179.707275,121.008644 
	C179.460861,109.515839 179.589752,98.014114 179.638367,86.516197 
	C179.666824,79.790154 180.493729,79.013351 187.077789,78.992332 
	C188.744171,78.987015 190.478882,78.697563 192.059891,79.064980 
	C194.095108,79.537979 196.007111,80.541153 197.763382,81.233635 
	C199.042801,77.532700 199.969788,72.309937 202.536957,68.083389 
	C205.587723,63.060604 211.251236,63.687309 217.041641,65.178787 
	C214.628586,66.958893 212.384827,69.061539 209.760406,70.438927 
	C206.340973,72.233582 204.920349,74.738693 205.286835,78.991478 
	C212.308395,78.991478 219.264420,78.991478 226.679077,78.991547 
M196.910675,99.107162 
	C196.513733,93.859688 196.116776,88.612221 195.719818,83.364746 
	C195.299774,83.368355 194.879745,83.371964 194.459702,83.375580 
	C194.459702,88.462601 194.389709,93.552055 194.566574,98.632919 
	C194.584518,99.148453 196.089188,99.612228 196.815399,101.021469 
	C196.809860,107.004272 196.706909,112.989662 196.865875,118.968094 
	C196.906647,120.501358 197.774048,122.012634 198.261688,123.534012 
	C198.948303,116.796997 199.062637,110.528412 198.863876,104.269768 
	C198.817123,102.797104 197.714050,101.357994 196.910675,99.107162 
M231.049973,85.365570 
	C230.266037,84.638824 229.499680,83.305260 228.695343,83.281937 
	C222.602173,83.105232 216.501572,83.185333 210.333496,83.185333 
	C210.333496,88.784721 210.333496,93.700974 210.333496,98.815216 
	C218.689224,98.815216 226.741089,98.815216 235.530518,98.815216 
	C234.010269,94.263138 232.654587,90.203835 231.049973,85.365570 
M252.021820,118.795364 
	C252.012650,121.472115 251.768326,124.339867 256.083679,123.787155 
	C256.083679,120.957848 256.083679,118.305611 256.083679,113.966568 
	C254.012024,116.030067 253.029160,117.009064 252.021820,118.795364 
M209.008530,109.629677 
	C209.008530,113.967720 209.008530,118.305763 209.008530,122.643806 
	C209.521454,122.596359 210.034363,122.548912 210.547287,122.501465 
	C210.547287,116.092232 210.547287,109.682999 210.547287,103.273766 
	C210.138580,103.246773 209.729874,103.219772 209.321167,103.192772 
	C209.216965,105.023445 209.112747,106.854111 209.008530,109.629677 
M236.228775,118.311104 
	C236.504349,113.320358 236.779922,108.329620 237.055496,103.338875 
	C236.263123,103.337746 235.470734,103.336609 234.678360,103.335480 
	C234.921478,108.352997 235.164581,113.370506 236.228775,118.311104 
z"/>
<path fill="#CD6D6C" opacity="1.000000" stroke="none" 
	d="
M146.420837,144.591797 
	C140.072266,142.668396 136.838867,138.644028 137.203949,133.530991 
	C137.537872,128.854248 141.391953,124.741165 146.046280,124.094406 
	C151.194733,123.378983 155.830139,126.057503 157.583954,130.761307 
	C160.175507,137.712006 155.278198,144.025620 146.420837,144.591797 
M147.579102,128.731079 
	C142.574387,130.186020 140.343597,133.530029 142.765030,136.791794 
	C143.989441,138.441101 146.913666,139.858856 148.858597,139.625427 
	C150.491669,139.429428 152.645554,136.890732 153.101181,135.029861 
	C153.919006,131.689758 152.061600,129.292725 147.579102,128.731079 
z"/>
<path fill="#CD6D6C" opacity="1.000000" stroke="none" 
	d="
M241.390594,143.578644 
	C236.165329,145.578339 231.826385,144.824875 228.549210,140.620941 
	C225.746109,137.025177 225.321060,133.031845 227.761734,129.015579 
	C230.179871,125.036377 233.860046,123.494827 238.378830,124.116516 
	C242.774200,124.721245 245.710892,127.383423 246.807755,131.570724 
	C248.139999,136.656570 246.261124,140.674652 241.390594,143.578644 
M241.604507,131.232574 
	C238.853867,127.987839 235.331619,127.473206 232.773163,130.605225 
	C231.508575,132.153290 231.450134,136.381409 232.683212,137.800705 
	C233.928848,139.234482 237.994736,139.695816 239.798294,138.708130 
	C241.290298,137.891052 241.286285,134.342133 241.604507,131.232574 
z"/>
<path fill="#CD6D6C" opacity="1.000000" stroke="none" 
	d="
M121.405197,124.189949 
	C128.776688,127.367668 131.351593,132.605820 128.731689,138.371124 
	C126.281029,143.763977 120.430908,146.086349 114.995399,143.824112 
	C110.423248,141.921188 107.782829,136.801224 108.898865,132.002502 
	C110.124428,126.732834 114.301552,124.013428 121.405197,124.189949 
M117.057922,129.044846 
	C115.903076,131.320999 113.436707,133.978271 113.956703,135.767731 
	C114.492851,137.612762 118.159828,139.931915 120.045158,139.612549 
	C121.938370,139.291824 124.550430,136.043533 124.668983,133.954605 
	C124.895187,129.968552 121.767059,128.394577 117.057922,129.044846 
z"/>
<path fill="#CB6867" opacity="1.000000" stroke="none" 
	d="
M195.897568,131.296722 
	C196.669495,130.005569 197.375168,128.552109 198.219238,128.466736 
	C201.137115,128.171600 204.103210,128.353027 207.303619,128.353027 
	C207.303619,133.713547 207.303619,138.613617 207.303619,143.810333 
	C203.544037,143.810333 199.995544,143.810333 195.894775,143.810333 
	C195.894775,139.639297 195.894775,135.700455 195.897568,131.296722 
z"/>
<path fill="#CD6D6C" opacity="1.000000" stroke="none" 
	d="
M102.458748,131.799042 
	C102.151695,127.772736 103.122597,125.499527 107.746651,126.681564 
	C106.960075,129.750931 106.206978,132.689651 105.453880,135.628372 
	C105.065224,135.791382 104.676575,135.954407 104.287926,136.117416 
	C103.678802,134.810760 103.069679,133.504089 102.458748,131.799042 
z"/>
<path fill="#D68682" opacity="1.000000" stroke="none" 
	d="
M133.132767,135.683884 
	C132.005554,132.722672 131.243210,129.872009 130.364517,126.586258 
	C132.465439,126.586258 134.433456,126.586258 136.829514,126.586258 
	C135.650986,129.843292 134.574326,132.818878 133.132767,135.683884 
z"/>
<path fill="#FEF2DE" opacity="1.000000" stroke="none" 
	d="
M231.174438,85.755051 
	C232.654587,90.203835 234.010269,94.263138 235.530518,98.815216 
	C226.741089,98.815216 218.689224,98.815216 210.333496,98.815216 
	C210.333496,93.700974 210.333496,88.784721 210.333496,83.185333 
	C216.501572,83.185333 222.602173,83.105232 228.695343,83.281937 
	C229.499680,83.305260 230.266037,84.638824 231.174438,85.755051 
z"/>
<path fill="#F9E4D2" opacity="1.000000" stroke="none" 
	d="
M197.096909,99.903450 
	C197.714050,101.357994 198.817123,102.797104 198.863876,104.269768 
	C199.062637,110.528412 198.948303,116.796997 198.261688,123.534012 
	C197.774048,122.012634 196.906647,120.501358 196.865875,118.968094 
	C196.706909,112.989662 196.809860,107.004272 196.907654,100.511360 
	C196.999924,100.001251 197.096909,99.903450 197.096909,99.903450 
z"/>
<path fill="#F9E4D2" opacity="1.000000" stroke="none" 
	d="
M252.034058,118.391708 
	C253.029160,117.009064 254.012024,116.030067 256.083679,113.966568 
	C256.083679,118.305611 256.083679,120.957848 256.083679,123.787155 
	C251.768326,124.339867 252.012650,121.472115 252.034058,118.391708 
z"/>
<path fill="#FFF5E1" opacity="1.000000" stroke="none" 
	d="
M209.008545,109.157227 
	C209.112747,106.854111 209.216965,105.023445 209.321167,103.192772 
	C209.729874,103.219772 210.138580,103.246773 210.547287,103.273766 
	C210.547287,109.682999 210.547287,116.092232 210.547287,122.501465 
	C210.034363,122.548912 209.521454,122.596359 209.008530,122.643806 
	C209.008530,118.305763 209.008530,113.967720 209.008545,109.157227 
z"/>
<path fill="#F9E4D2" opacity="1.000000" stroke="none" 
	d="
M196.951935,100.050636 
	C196.089188,99.612228 194.584518,99.148453 194.566574,98.632919 
	C194.389709,93.552055 194.459702,88.462601 194.459702,83.375580 
	C194.879745,83.371964 195.299774,83.368355 195.719818,83.364746 
	C196.116776,88.612221 196.513733,93.859688 197.003784,99.505310 
	C197.096909,99.903450 196.999924,100.001251 196.951935,100.050636 
z"/>
<path fill="#F9E4D2" opacity="1.000000" stroke="none" 
	d="
M235.818237,118.349564 
	C235.164581,113.370506 234.921478,108.352997 234.678360,103.335480 
	C235.470734,103.336609 236.263123,103.337746 237.055496,103.338875 
	C236.779922,108.329620 236.504349,113.320358 235.818237,118.349564 
z"/>
<path fill="#FEF2DE" opacity="1.000000" stroke="none" 
	d="
M147.992966,128.739746 
	C152.061600,129.292725 153.919006,131.689758 153.101181,135.029861 
	C152.645554,136.890732 150.491669,139.429428 148.858597,139.625427 
	C146.913666,139.858856 143.989441,138.441101 142.765030,136.791794 
	C140.343597,133.530029 142.574387,130.186020 147.992966,128.739746 
z"/>
<path fill="#FEF2DE" opacity="1.000000" stroke="none" 
	d="
M241.774811,131.618103 
	C241.286285,134.342133 241.290298,137.891052 239.798294,138.708130 
	C237.994736,139.695816 233.928848,139.234482 232.683212,137.800705 
	C231.450134,136.381409 231.508575,132.153290 232.773163,130.605225 
	C235.331619,127.473206 238.853867,127.987839 241.774811,131.618103 
z"/>
<path fill="#FEF2DE" opacity="1.000000" stroke="none" 
	d="
M117.450447,128.946838 
	C121.767059,128.394577 124.895187,129.968552 124.668983,133.954605 
	C124.550430,136.043533 121.938370,139.291824 120.045158,139.612549 
	C118.159828,139.931915 114.492851,137.612762 113.956703,135.767731 
	C113.436707,133.978271 115.903076,131.320999 117.450447,128.946838 
z"/>
</svg>